<svg display="block" role="presentation" viewBox="0 0 21 21" xmlns="http://www.w3.org/2000/svg"><path d="M 0 0.974 L 2.64 0 L 2.64 0.412 L 0 1.382 Z" fill="rgb(243, 243, 243)" height="1.3818000000000001px" id="Do7XGZl95" transform="translate(1.177 10.861)" width="2.6402849999999916px"/><path d="M 0 0 L 2.64 0.97 L 2.64 1.381 L 0 0.408 Z" fill="rgb(243, 243, 243)" height="1.3811250000000008px" id="ardUqVSjv" transform="translate(17.019 8.255)" width="2.640225000000015px"/><path d="M 2.54 2.764 L 1.148 1.41 C 1.13 1.393 1.101 1.393 1.084 1.41 L 0.336 2.138 L 0 1.811 L 1.861 0 L 2.197 0.327 L 1.438 1.065 C 1.421 1.082 1.421 1.11 1.438 1.127 L 2.83 2.481 Z" fill="rgb(243, 243, 243)" height="2.7642000000000007px" id="XSm8bSs0k" transform="translate(2.442 13.382)" width="2.8302900000000193px"/><path d="M 0.291 0.001 L 1.682 1.355 C 1.7 1.372 1.728 1.372 1.746 1.355 L 2.505 0.617 L 2.841 0.944 L 0.98 2.755 L 0.644 2.428 L 1.392 1.7 C 1.41 1.682 1.41 1.654 1.392 1.637 L 0 0.283 L 0.291 0 Z" fill="rgb(243, 243, 243)" height="2.7545849999999996px" id="f2ZZLAsi4" transform="translate(15.559 4.358)" width="2.8407749999999794px"/><path d="M 1.103 2.422 L 1.103 0.507 C 1.103 0.482 1.083 0.463 1.058 0.463 L 0 0.463 L 0 0 L 2.632 0 L 2.632 0.463 L 1.559 0.463 C 1.534 0.463 1.515 0.482 1.515 0.506 L 1.515 2.421 L 1.104 2.421 Z" fill="rgb(243, 243, 243)" height="2.421900000000001px" id="tc4qemIbM" transform="translate(1.186 8.257)" width="2.6324024999999835px"/><path d="M 0.297 0 L 2.871 1.128 L 2.572 1.419 L 0 0.289 Z" fill="rgb(243, 243, 243)" height="1.418872499999999px" id="hhCAOkrMa" transform="translate(2.435 5.013)" width="2.871052500000019px"/><path d="M 0.001 1.088 L 1.969 1.088 C 1.994 1.088 2.014 1.068 2.014 1.044 L 2.014 0 L 2.489 0 L 2.489 2.561 L 2.014 2.561 L 2.014 1.532 C 2.014 1.508 1.993 1.488 1.968 1.488 L 0 1.488 L 0 1.088 Z" fill="rgb(243, 243, 243)" height="2.5613850000000005px" id="OMqPlHb47" transform="translate(9.977 1.259)" width="2.4891000000000076px"/><path d="M 0 2.569 L 0.997 0 L 1.419 0 L 0.419 2.569 Z" fill="rgb(243, 243, 243)" height="2.5690575000000004px" id="aEfuntreb" transform="translate(8.37 1.259)" width="1.419374999999988px"/><path d="M 0 1.13 L 2.572 0 L 2.871 0.291 L 0.296 1.419 Z" fill="rgb(243, 243, 243)" height="1.4188725000000009px" id="mFAuf88mE" transform="translate(13.637 3.169)" width="2.8710750000000047px"/><path d="M 0 2.471 L 1.392 1.117 C 1.41 1.1 1.41 1.072 1.392 1.055 L 0.644 0.327 L 0.98 0 L 2.841 1.811 L 2.505 2.138 L 1.746 1.4 C 1.728 1.382 1.7 1.382 1.682 1.4 L 0.291 2.754 Z" fill="rgb(243, 243, 243)" height="2.7539474999999998px" id="AklTveDxG" transform="translate(4.359 2.489)" width="2.840804999999989px"/><path d="M 0 2.504 L 1.159 0 L 1.458 0.291 L 0.297 2.794 Z" fill="rgb(243, 243, 243)" height="2.793599999999998px" id="cxf8oZVTx" transform="translate(5.036 15.224)" width="1.458209999999994px"/><path d="M 2.489 1.488 L 0.521 1.488 C 0.496 1.488 0.475 1.508 0.475 1.532 L 0.475 2.561 L 0 2.561 L 0 0 L 0.475 0 L 0.475 1.044 C 0.475 1.068 0.496 1.087 0.52 1.087 L 2.488 1.087 L 2.488 1.487 Z" fill="rgb(243, 243, 243)" height="2.561399999999999px" id="hHtvwCwnw" transform="translate(8.37 16.672)" width="2.489024999999984px"/><path d="M 1.001 2.568 L 0 0 L 0.423 0 L 1.42 2.568 Z" fill="rgb(243, 243, 243)" height="2.568375000000003px" id="BH16vA6Yx" transform="translate(11.045 16.673)" width="1.4200499999999892px"/><path d="M 2.83 0.283 L 1.439 1.637 C 1.421 1.654 1.421 1.682 1.439 1.699 L 2.197 2.437 L 1.861 2.764 L 0 0.953 L 0.336 0.626 L 1.084 1.354 C 1.102 1.372 1.131 1.372 1.149 1.354 L 2.54 0 L 2.831 0.283 Z" fill="rgb(243, 243, 243)" height="2.7642000000000024px" id="XPK73E3YK" transform="translate(13.643 15.253)" width="2.8309500000000156px"/><path d="M 1.515 0.001 L 1.515 1.916 C 1.515 1.94 1.535 1.959 1.559 1.959 L 2.632 1.959 L 2.632 2.422 L 0 2.422 L 0 1.959 L 1.058 1.959 C 1.083 1.959 1.103 1.94 1.103 1.915 L 1.103 0 L 1.514 0 Z" fill="rgb(243, 243, 243)" height="2.4219749999999998px" id="w7PYPX9i3" transform="translate(17.027 9.82)" width="2.632425000000012px"/><path d="M 0.297 0 L 1.459 2.503 L 1.16 2.794 L 0 0.289 Z" fill="rgb(243, 243, 243)" height="2.7936000000000014px" id="F5j_VjIZW" transform="translate(16.236 13.382)" width="1.4588999999999999px"/></svg>